<svg width="20" height="21" viewBox="0 0 20 21" fill="none" xmlns="http://www.w3.org/2000/svg">
<path d="M5.58672 9.50742C6.76797 11.8289 8.67109 13.732 10.9926 14.9133L12.7973 13.1086C13.027 12.8789 13.3469 12.8133 13.634 12.9035C14.5527 13.207 15.5371 13.3711 16.5625 13.3711C16.7801 13.3711 16.9887 13.4575 17.1425 13.6114C17.2964 13.7652 17.3828 13.9738 17.3828 14.1914V17.0625C17.3828 17.2801 17.2964 17.4887 17.1425 17.6425C16.9887 17.7964 16.7801 17.8828 16.5625 17.8828C12.864 17.8828 9.31693 16.4136 6.70167 13.7983C4.08642 11.1831 2.61719 7.63603 2.61719 3.9375C2.61719 3.71994 2.70361 3.51129 2.85745 3.35745C3.01129 3.20361 3.21994 3.11719 3.4375 3.11719H6.30859C6.52615 3.11719 6.7348 3.20361 6.88864 3.35745C7.04248 3.51129 7.12891 3.71994 7.12891 3.9375C7.12891 4.96289 7.29297 5.94727 7.59648 6.86602C7.68672 7.15313 7.62109 7.47305 7.39141 7.70273L5.58672 9.50742Z" fill="white"/>
</svg>
