<svg width="20" height="21" viewBox="0 0 20 21" fill="none" xmlns="http://www.w3.org/2000/svg">
<path d="M15.7391 6.49839H9.33641V12.1008H2.93369V4.89771H1.33301V16.9028H2.93369V14.5018H17.3398V16.9028H18.9405V9.69975C18.9405 8.85069 18.6032 8.03641 18.0028 7.43604C17.4025 6.83567 16.5882 6.49839 15.7391 6.49839ZM6.13505 11.3004C6.77184 11.3004 7.38255 11.0475 7.83283 10.5972C8.28311 10.1469 8.53607 9.5362 8.53607 8.89941C8.53607 8.26262 8.28311 7.65191 7.83283 7.20163C7.38255 6.75135 6.77184 6.49839 6.13505 6.49839C5.49826 6.49839 4.88755 6.75135 4.43727 7.20163C3.98699 7.65191 3.73403 8.26262 3.73403 8.89941C3.73403 9.5362 3.98699 10.1469 4.43727 10.5972C4.88755 11.0475 5.49826 11.3004 6.13505 11.3004Z" fill="white"/>
</svg>
