<svg width="18" height="17" viewBox="0 0 18 17" fill="none" xmlns="http://www.w3.org/2000/svg">
<g clip-path="url(#clip0_90_1401)">
<path d="M2.6454 4.39213C2.6454 3.7367 3.17835 3.20375 3.83378 3.20375C4.14825 3.20375 4.44948 3.32954 4.67458 3.55133L5.21083 4.08758C4.51568 5.37526 4.63485 6.98404 5.57165 8.15917L5.5253 8.2022C5.21414 8.51336 5.21414 9.01652 5.5253 9.32437C5.83647 9.63222 6.33962 9.63553 6.64747 9.32437L11.9472 4.03131C12.2583 3.72015 12.2583 3.21699 11.9472 2.90914C11.636 2.60129 11.1328 2.59798 10.825 2.90914L10.782 2.95218C9.60682 2.01538 7.99474 1.89621 6.71037 2.59136L6.1708 2.0551C5.55179 1.43278 4.71099 1.08521 3.83378 1.08521C2.00653 1.08521 0.526855 2.56488 0.526855 4.39213V14.8558C0.526855 15.4417 1.00022 15.915 1.58613 15.915C2.17204 15.915 2.6454 15.4417 2.6454 14.8558V4.39213ZM9.00105 11.6779C9.28199 11.6779 9.55142 11.5663 9.75007 11.3677C9.94872 11.169 10.0603 10.8996 10.0603 10.6187C10.0603 10.3377 9.94872 10.0683 9.75007 9.86965C9.55142 9.671 9.28199 9.5594 9.00105 9.5594C8.72011 9.5594 8.45068 9.671 8.25203 9.86965C8.05338 10.0683 7.94177 10.3377 7.94177 10.6187C7.94177 10.8996 8.05338 11.169 8.25203 11.3677C8.45068 11.5663 8.72011 11.6779 9.00105 11.6779ZM11.1196 13.7965C11.1196 13.5156 11.008 13.2461 10.8093 13.0475C10.6107 12.8488 10.3413 12.7372 10.0603 12.7372C9.77939 12.7372 9.50995 12.8488 9.3113 13.0475C9.11265 13.2461 9.00105 13.5156 9.00105 13.7965C9.00105 14.0774 9.11265 14.3469 9.3113 14.5455C9.50995 14.7442 9.77939 14.8558 10.0603 14.8558C10.3413 14.8558 10.6107 14.7442 10.8093 14.5455C11.008 14.3469 11.1196 14.0774 11.1196 13.7965ZM11.1196 9.5594C11.4005 9.5594 11.67 9.44779 11.8686 9.24914C12.0673 9.05049 12.1789 8.78106 12.1789 8.50012C12.1789 8.21919 12.0673 7.94976 11.8686 7.7511C11.67 7.55245 11.4005 7.44085 11.1196 7.44085C10.8387 7.44085 10.5692 7.55245 10.3706 7.7511C10.1719 7.94976 10.0603 8.21919 10.0603 8.50012C10.0603 8.78106 10.1719 9.05049 10.3706 9.24914C10.5692 9.44779 10.8387 9.5594 11.1196 9.5594ZM13.2381 11.6779C13.2381 11.397 13.1265 11.1276 12.9279 10.9289C12.7292 10.7303 12.4598 10.6187 12.1789 10.6187C11.8979 10.6187 11.6285 10.7303 11.4299 10.9289C11.2312 11.1276 11.1196 11.397 11.1196 11.6779C11.1196 11.9589 11.2312 12.2283 11.4299 12.427C11.6285 12.6256 11.8979 12.7372 12.1789 12.7372C12.4598 12.7372 12.7292 12.6256 12.9279 12.427C13.1265 12.2283 13.2381 11.9589 13.2381 11.6779ZM13.2381 7.44085C13.5191 7.44085 13.7885 7.32925 13.9872 7.13059C14.1858 6.93194 14.2974 6.66251 14.2974 6.38157C14.2974 6.10064 14.1858 5.83121 13.9872 5.63256C13.7885 5.4339 13.5191 5.3223 13.2381 5.3223C12.9572 5.3223 12.6878 5.4339 12.4891 5.63256C12.2905 5.83121 12.1789 6.10064 12.1789 6.38157C12.1789 6.66251 12.2905 6.93194 12.4891 7.13059C12.6878 7.32925 12.9572 7.44085 13.2381 7.44085ZM15.3567 9.5594C15.3567 9.27846 15.2451 9.00903 15.0464 8.81038C14.8478 8.61172 14.5784 8.50012 14.2974 8.50012C14.0165 8.50012 13.7471 8.61172 13.5484 8.81038C13.3497 9.00903 13.2381 9.27846 13.2381 9.5594C13.2381 9.84033 13.3497 10.1098 13.5484 10.3084C13.7471 10.5071 14.0165 10.6187 14.2974 10.6187C14.5784 10.6187 14.8478 10.5071 15.0464 10.3084C15.2451 10.1098 15.3567 9.84033 15.3567 9.5594ZM16.416 8.50012C16.6969 8.50012 16.9663 8.38852 17.165 8.18987C17.3636 7.99122 17.4752 7.72179 17.4752 7.44085C17.4752 7.15991 17.3636 6.89048 17.165 6.69183C16.9663 6.49318 16.6969 6.38157 16.416 6.38157C16.135 6.38157 15.8656 6.49318 15.6669 6.69183C15.4683 6.89048 15.3567 7.15991 15.3567 7.44085C15.3567 7.72179 15.4683 7.99122 15.6669 8.18987C15.8656 8.38852 16.135 8.50012 16.416 8.50012Z" fill="black"/>
</g>
<defs>
<clipPath id="clip0_90_1401">
<rect width="16.9484" height="16.9484" fill="white" transform="translate(0.526855 0.0258789)"/>
</clipPath>
</defs>
</svg>
