<svg width="16" height="17" viewBox="0 0 16 17" fill="none" xmlns="http://www.w3.org/2000/svg">
<path d="M14.5734 15.4049L1.39136 1.59509V15.4049H14.5734Z" stroke="black" stroke-width="0.659104" stroke-linecap="round" stroke-linejoin="round"/>
<path d="M4.35754 12.2977H8.31217L4.35754 8.15479V12.2977Z" fill="black"/>
<path d="M4.35754 12.2977H8.31217L4.35754 8.15479V12.2977Z" fill="black"/>
<path d="M4.35754 12.2977H8.31217L4.35754 8.15479V12.2977Z" fill="black"/>
<path d="M4.35754 12.2977H8.31217L4.35754 8.15479V12.2977Z" fill="black"/>
<path d="M4.35754 12.2977H8.31217L4.35754 8.15479V12.2977Z" stroke="black" stroke-width="0.659104" stroke-linecap="round" stroke-linejoin="round"/>
<path d="M4.35754 12.2977H8.31217L4.35754 8.15479V12.2977Z" stroke="black" stroke-width="0.659104" stroke-linecap="round" stroke-linejoin="round"/>
<path d="M4.35754 12.2977H8.31217L4.35754 8.15479V12.2977Z" stroke="black" stroke-width="0.659104" stroke-linecap="round" stroke-linejoin="round"/>
<path d="M4.35754 12.2977H8.31217L4.35754 8.15479V12.2977Z" stroke="black" stroke-width="0.659104" stroke-linecap="round" stroke-linejoin="round"/>
<path d="M9.95983 15.4048V14.3691M7.98252 15.4048V14.3691M6.00521 15.4048V14.3691M4.02789 15.4048V14.3691M1.39148 12.6429H2.38014M1.39148 10.5714H2.38014M1.39148 8.49994H2.38014M1.39148 6.42847H2.38014" stroke="black" stroke-width="0.659104" stroke-linecap="round" stroke-linejoin="round"/>
</svg>
