<svg width="20" height="21" viewBox="0 0 20 21" fill="none" xmlns="http://www.w3.org/2000/svg">
<g clip-path="url(#clip0_90_1397)">
<path d="M15.9275 6.49839H9.52477V12.1008H3.12204V4.89771H1.52136V16.9028H3.12204V14.5018H17.5282V16.9028H19.1289V9.69975C19.1289 8.85069 18.7916 8.03641 18.1912 7.43604C17.5908 6.83567 16.7765 6.49839 15.9275 6.49839ZM6.3234 11.3004C6.9602 11.3004 7.5709 11.0475 8.02118 10.5972C8.47146 10.1469 8.72443 9.5362 8.72443 8.89941C8.72443 8.26262 8.47146 7.65191 8.02118 7.20163C7.5709 6.75135 6.9602 6.49839 6.3234 6.49839C5.68661 6.49839 5.07591 6.75135 4.62563 7.20163C4.17535 7.65191 3.92238 8.26262 3.92238 8.89941C3.92238 9.5362 4.17535 10.1469 4.62563 10.5972C5.07591 11.0475 5.68661 11.3004 6.3234 11.3004Z" fill="black"/>
</g>
<defs>
<clipPath id="clip0_90_1397">
<rect width="19.2082" height="19.2082" fill="white" transform="translate(0.720825 0.895996)"/>
</clipPath>
</defs>
</svg>
