<svg width="57" height="61" viewBox="0 0 57 61" fill="none" xmlns="http://www.w3.org/2000/svg">
<path d="M0 25.483C0 11.5345 11.3074 0.227051 25.2559 0.227051V35.1149C25.2559 49.0634 13.9484 60.3708 0 60.3708V25.483Z" fill="#2495FD"/>
<path d="M28.92 13.9509C28.92 6.37143 35.0644 0.227051 42.6439 0.227051C50.2234 0.227051 56.3677 6.37143 56.3677 13.9509V14.7433C56.3677 22.3227 50.2234 28.4671 42.6439 28.4671C35.0644 28.4671 28.92 22.3227 28.92 14.7433V13.9509Z" fill="#94A0DF"/>
<path d="M28.92 45.8547C28.92 38.2752 35.0644 32.1309 42.6439 32.1309C50.2234 32.1309 56.3677 38.2752 56.3677 45.8547V46.6471C56.3677 54.2265 50.2234 60.3709 42.6439 60.3709C35.0644 60.3709 28.92 54.2265 28.92 46.6471V45.8547Z" fill="#36ACB4"/>
</svg>
