<svg width="11" height="14" viewBox="0 0 11 14" fill="none" xmlns="http://www.w3.org/2000/svg">
<path d="M5.401 0.944458C2.85526 0.944458 0.789673 2.80369 0.789673 5.09465C0.789673 8.78372 5.401 13.8562 5.401 13.8562C5.401 13.8562 10.0123 8.78372 10.0123 5.09465C10.0123 2.80369 7.94674 0.944458 5.401 0.944458ZM5.401 7.40032C5.03619 7.40032 4.67957 7.29214 4.37623 7.08946C4.0729 6.88678 3.83648 6.5987 3.69688 6.26166C3.55727 5.92461 3.52074 5.55374 3.59191 5.19594C3.66308 4.83813 3.83876 4.50947 4.09672 4.25151C4.35468 3.99354 4.68335 3.81787 5.04115 3.7467C5.39895 3.67553 5.76983 3.71205 6.10687 3.85166C6.44392 3.99127 6.73199 4.22769 6.93467 4.53102C7.13735 4.83435 7.24553 5.19097 7.24553 5.55579C7.245 6.04482 7.05049 6.51368 6.70469 6.85948C6.35889 7.20528 5.89004 7.39978 5.401 7.40032Z" fill="#7A7A7A"/>
</svg>
