<svg width="17" height="17" viewBox="0 0 17 17" fill="none" xmlns="http://www.w3.org/2000/svg">
<path d="M15.3851 15.4049L2.203 1.59509V15.4049H15.3851Z" stroke="white" stroke-width="0.659104" stroke-linecap="round" stroke-linejoin="round"/>
<path d="M5.16919 12.2977H9.12381L5.16919 8.15479V12.2977Z" fill="white"/>
<path d="M5.16919 12.2977H9.12381L5.16919 8.15479V12.2977Z" fill="white"/>
<path d="M5.16919 12.2977H9.12381L5.16919 8.15479V12.2977Z" fill="white"/>
<path d="M5.16919 12.2977H9.12381L5.16919 8.15479V12.2977Z" fill="white"/>
<path d="M5.16919 12.2977H9.12381L5.16919 8.15479V12.2977Z" stroke="white" stroke-width="0.659104" stroke-linecap="round" stroke-linejoin="round"/>
<path d="M5.16919 12.2977H9.12381L5.16919 8.15479V12.2977Z" stroke="white" stroke-width="0.659104" stroke-linecap="round" stroke-linejoin="round"/>
<path d="M5.16919 12.2977H9.12381L5.16919 8.15479V12.2977Z" stroke="white" stroke-width="0.659104" stroke-linecap="round" stroke-linejoin="round"/>
<path d="M5.16919 12.2977H9.12381L5.16919 8.15479V12.2977Z" stroke="white" stroke-width="0.659104" stroke-linecap="round" stroke-linejoin="round"/>
<path d="M10.7715 15.4048V14.3691M8.79416 15.4048V14.3691M6.81685 15.4048V14.3691M4.83954 15.4048V14.3691M2.20312 12.6429H3.19178M2.20312 10.5714H3.19178M2.20312 8.49994H3.19178M2.20312 6.42847H3.19178" stroke="white" stroke-width="0.659104" stroke-linecap="round" stroke-linejoin="round"/>
</svg>
