<svg width="18" height="17" viewBox="0 0 18 17" fill="none" xmlns="http://www.w3.org/2000/svg">
<g clip-path="url(#clip0_49_1365)">
<path d="M2.45705 4.39213C2.45705 3.7367 2.99 3.20375 3.64542 3.20375C3.95989 3.20375 4.26113 3.32954 4.48622 3.55133L5.02248 4.08758C4.32733 5.37526 4.4465 6.98404 5.38329 8.15917L5.33695 8.2022C5.02579 8.51336 5.02579 9.01652 5.33695 9.32437C5.64811 9.63222 6.15127 9.63553 6.45912 9.32437L11.7588 4.03131C12.07 3.72015 12.07 3.21699 11.7588 2.90914C11.4476 2.60129 10.9445 2.59798 10.6366 2.90914L10.5936 2.95218C9.41847 2.01538 7.80638 1.89621 6.52201 2.59136L5.98245 2.0551C5.36343 1.43278 4.52263 1.08521 3.64542 1.08521C1.81817 1.08521 0.338501 2.56488 0.338501 4.39213V14.8558C0.338501 15.4417 0.811864 15.915 1.39778 15.915C1.98369 15.915 2.45705 15.4417 2.45705 14.8558V4.39213ZM8.81269 11.6779C9.09363 11.6779 9.36306 11.5663 9.56171 11.3677C9.76037 11.169 9.87197 10.8996 9.87197 10.6187C9.87197 10.3377 9.76037 10.0683 9.56171 9.86965C9.36306 9.671 9.09363 9.5594 8.81269 9.5594C8.53176 9.5594 8.26233 9.671 8.06367 9.86965C7.86502 10.0683 7.75342 10.3377 7.75342 10.6187C7.75342 10.8996 7.86502 11.169 8.06367 11.3677C8.26233 11.5663 8.53176 11.6779 8.81269 11.6779ZM10.9312 13.7965C10.9312 13.5156 10.8196 13.2461 10.621 13.0475C10.4223 12.8488 10.1529 12.7372 9.87197 12.7372C9.59103 12.7372 9.3216 12.8488 9.12295 13.0475C8.9243 13.2461 8.81269 13.5156 8.81269 13.7965C8.81269 14.0774 8.9243 14.3469 9.12295 14.5455C9.3216 14.7442 9.59103 14.8558 9.87197 14.8558C10.1529 14.8558 10.4223 14.7442 10.621 14.5455C10.8196 14.3469 10.9312 14.0774 10.9312 13.7965ZM10.9312 9.5594C11.2122 9.5594 11.4816 9.44779 11.6803 9.24914C11.8789 9.05049 11.9905 8.78106 11.9905 8.50012C11.9905 8.21919 11.8789 7.94976 11.6803 7.7511C11.4816 7.55245 11.2122 7.44085 10.9312 7.44085C10.6503 7.44085 10.3809 7.55245 10.1822 7.7511C9.98357 7.94976 9.87197 8.21919 9.87197 8.50012C9.87197 8.78106 9.98357 9.05049 10.1822 9.24914C10.3809 9.44779 10.6503 9.5594 10.9312 9.5594ZM13.0498 11.6779C13.0498 11.397 12.9382 11.1276 12.7395 10.9289C12.5409 10.7303 12.2715 10.6187 11.9905 10.6187C11.7096 10.6187 11.4401 10.7303 11.2415 10.9289C11.0428 11.1276 10.9312 11.397 10.9312 11.6779C10.9312 11.9589 11.0428 12.2283 11.2415 12.427C11.4401 12.6256 11.7096 12.7372 11.9905 12.7372C12.2715 12.7372 12.5409 12.6256 12.7395 12.427C12.9382 12.2283 13.0498 11.9589 13.0498 11.6779ZM13.0498 7.44085C13.3307 7.44085 13.6002 7.32925 13.7988 7.13059C13.9975 6.93194 14.1091 6.66251 14.1091 6.38157C14.1091 6.10064 13.9975 5.83121 13.7988 5.63256C13.6002 5.4339 13.3307 5.3223 13.0498 5.3223C12.7689 5.3223 12.4994 5.4339 12.3008 5.63256C12.1021 5.83121 11.9905 6.10064 11.9905 6.38157C11.9905 6.66251 12.1021 6.93194 12.3008 7.13059C12.4994 7.32925 12.7689 7.44085 13.0498 7.44085ZM15.1683 9.5594C15.1683 9.27846 15.0567 9.00903 14.8581 8.81038C14.6594 8.61172 14.39 8.50012 14.1091 8.50012C13.8281 8.50012 13.5587 8.61172 13.36 8.81038C13.1614 9.00903 13.0498 9.27846 13.0498 9.5594C13.0498 9.84033 13.1614 10.1098 13.36 10.3084C13.5587 10.5071 13.8281 10.6187 14.1091 10.6187C14.39 10.6187 14.6594 10.5071 14.8581 10.3084C15.0567 10.1098 15.1683 9.84033 15.1683 9.5594ZM16.2276 8.50012C16.5085 8.50012 16.778 8.38852 16.9766 8.18987C17.1753 7.99122 17.2869 7.72179 17.2869 7.44085C17.2869 7.15991 17.1753 6.89048 16.9766 6.69183C16.778 6.49318 16.5085 6.38157 16.2276 6.38157C15.9467 6.38157 15.6772 6.49318 15.4786 6.69183C15.2799 6.89048 15.1683 7.15991 15.1683 7.44085C15.1683 7.72179 15.2799 7.99122 15.4786 8.18987C15.6772 8.38852 15.9467 8.50012 16.2276 8.50012Z" fill="white"/>
</g>
<defs>
<clipPath id="clip0_49_1365">
<rect width="16.9484" height="16.9484" fill="white" transform="translate(0.338501 0.0258789)"/>
</clipPath>
</defs>
</svg>
