<svg width="10" height="14" viewBox="0 0 10 14" fill="none" xmlns="http://www.w3.org/2000/svg">
<path d="M0.860029 8.68536C0.792132 8.75271 0.73824 8.83282 0.701464 8.9211C0.664687 9.00937 0.645752 9.10406 0.645752 9.19969C0.645752 9.29532 0.664687 9.39 0.701464 9.47828C0.73824 9.56655 0.792132 9.64667 0.860029 9.71401L4.48203 13.336C4.54938 13.4039 4.62949 13.4578 4.71777 13.4946C4.80604 13.5314 4.90073 13.5503 4.99636 13.5503C5.09199 13.5503 5.18667 13.5314 5.27495 13.4946C5.36322 13.4578 5.44334 13.4039 5.51068 13.336L9.13269 9.71401C9.20058 9.64667 9.25448 9.56655 9.29125 9.47828C9.32803 9.39 9.34696 9.29532 9.34696 9.19969C9.34696 9.10406 9.32803 9.00937 9.29125 8.9211C9.25448 8.83282 9.20058 8.75271 9.13269 8.68536C9.06534 8.61747 8.98522 8.56357 8.89695 8.5268C8.80867 8.49002 8.71399 8.47109 8.61836 8.47109C8.52273 8.47109 8.42805 8.49002 8.33977 8.5268C8.2515 8.56357 8.17138 8.61747 8.10404 8.68536L4.99636 11.8003L1.88868 8.68536C1.82134 8.61747 1.74122 8.56357 1.65294 8.5268C1.56467 8.49002 1.46998 8.47109 1.37435 8.47109C1.27872 8.47109 1.18404 8.49002 1.09577 8.5268C1.00749 8.56357 0.927371 8.61747 0.860029 8.68536ZM4.48203 0.716954L0.860029 4.33896C0.792486 4.4065 0.738909 4.48668 0.702356 4.57493C0.665802 4.66318 0.646988 4.75776 0.646988 4.85328C0.646988 5.04619 0.723621 5.2312 0.860029 5.36761C0.927571 5.43515 1.00775 5.48873 1.096 5.52528C1.18425 5.56183 1.27883 5.58065 1.37435 5.58065C1.56726 5.58065 1.75227 5.50401 1.88868 5.36761L4.99636 2.25268L8.10404 5.36761C8.17138 5.4355 8.2515 5.4894 8.33977 5.52617C8.42805 5.56295 8.52273 5.58188 8.61836 5.58188C8.71399 5.58188 8.80867 5.56295 8.89695 5.52617C8.98522 5.4894 9.06534 5.4355 9.13269 5.36761C9.20058 5.30026 9.25448 5.22015 9.29125 5.13187C9.32803 5.0436 9.34696 4.94891 9.34696 4.85328C9.34696 4.75765 9.32803 4.66297 9.29125 4.57469C9.25448 4.48642 9.20058 4.4063 9.13269 4.33896L5.51068 0.716954C5.44334 0.649056 5.36322 0.595164 5.27495 0.558388C5.18667 0.52161 5.09199 0.502677 4.99636 0.502677C4.90073 0.502677 4.80604 0.52161 4.71777 0.558388C4.62949 0.595164 4.54938 0.649056 4.48203 0.716954Z" fill="#A4A4A4"/>
</svg>
